<?xml version="1.0" encoding="UTF-8"?>
<svg id="Layer_1" xmlns="http://www.w3.org/2000/svg" version="1.1" viewBox="0 0 800 800">
  <!-- Generator: Adobe Illustrator 29.0.0, SVG Export Plug-In . SVG Version: 2.1.0 Build 186)  -->
  <path d="M697,230.4l-69.8,242.3c-2.4,8.2-7.9,12.9-16.4,13.7h-303.2c-9.8,13-10.1,31.7,9.1,34.7h296.4c13.3,2.6,19.1,18.5,10.4,28.9-1.1,1.3-8.4,5.8-9.2,5.8h-66.6l17.7,6c47.7,26.2,28.6,100.1-26.5,98.3-52.7-1.7-69-72.3-23.6-97.8l18.4-6.5h-160.9l17.7,6c47.7,26.2,28.6,100.1-26.5,98.3-52.7-1.7-69-72.3-23.6-97.8l18.4-6.5h-48.1c-11.6,0-30-13.3-36.3-22.8-14-21.2-9.7-44.5,2.7-65.2l-83-294-77.5-.7c-18.3-6.3-16.3-31,2.9-34.2,28.2,2.2,60.4-2.8,88.1,0,6.9.7,12.1,4.2,15,10.5,7.8,17.3,9.9,41.2,17.5,59.1l444.9.7c6.7,1.9,8.3,6.8,11.8,12v9.3ZM656.5,243.1H250.1l59.2,208.3,287.5.2,59.8-208.5ZM362,590.7c-21.8,4.6-15.1,38.9,7.6,34.2,21.5-4.4,15.5-39-7.6-34.2ZM536.9,590.7c-21.8,4.6-15.1,38.9,7.6,34.2s15.5-39-7.6-34.2Z"/>
</svg>